<?xml version="1.0" encoding="UTF-8" standalone="no"?>
<svg
   xmlns:dc="http://purl.org/dc/elements/1.1/"
   xmlns:cc="http://creativecommons.org/ns#"
   xmlns:rdf="http://www.w3.org/1999/02/22-rdf-syntax-ns#"
   xmlns:svg="http://www.w3.org/2000/svg"
   xmlns="http://www.w3.org/2000/svg"
   id="svg302"
   version="1.1"
   viewBox="0 0 8.4666665 8.4666669"
   height="32"
   width="32">
  <defs
     id="defs296" />
  <metadata
     id="metadata299">
    <rdf:RDF>
      <cc:Work
         rdf:about="">
        <dc:format>image/svg+xml</dc:format>
        <dc:type
           rdf:resource="http://purl.org/dc/dcmitype/StillImage" />
        <dc:title></dc:title>
      </cc:Work>
    </rdf:RDF>
  </metadata>
  <g
     transform="translate(0,-288.53332)"
     id="layer1">
    <path
       d="m 4.2330148,289.15389 c -2.045213,0 -3.70385097,1.65841 -3.70385097,3.70431 0,1.63635 1.06126397,3.02484 2.53320897,3.51488 0.185329,0.0339 0.252866,-0.0805 0.252866,-0.17874 0,-0.088 -0.0032,-0.32085 -0.005,-0.62988 -1.030339,0.22375 -1.24773,-0.49664 -1.24773,-0.49664 -0.168502,-0.42797 -0.411362,-0.54189 -0.411362,-0.54189 -0.336321,-0.22967 0.02547,-0.22513 0.02547,-0.22513 0.371796,0.0262 0.567357,0.38181 0.567357,0.38181 0.330409,0.56599 0.867067,0.40249 1.078092,0.30766 0.03365,-0.23922 0.129389,-0.40249 0.235129,-0.49504 -0.822497,-0.0937 -1.68729,-0.41136 -1.68729,-1.83078 0,-0.40454 0.144398,-0.73495 0.381346,-0.99395 -0.0382,-0.0937 -0.165318,-0.47026 0.03639,-0.98031 0,0 0.310852,-0.0996 1.018513,0.37952 0.29539,-0.0821 0.612382,-0.12302 0.927327,-0.12461 0.314719,10e-4 0.631483,0.0425 0.927328,0.12461 0.707206,-0.47912 1.017603,-0.37952 1.017603,-0.37952 0.202157,0.51005 0.07504,0.88662 0.03706,0.98031 0.237403,0.259 0.380664,0.58941 0.380664,0.99395 0,1.42306 -0.866157,1.73618 -1.691156,1.82782 0.1328,0.11439 0.251274,0.34042 0.251274,0.68606 0,0.49505 -0.0046,0.89459 -0.0046,1.01601 0,0.0991 0.06685,0.21444 0.254686,0.17828 1.470808,-0.49095 2.531163,-1.8783 2.531163,-3.51442 0,-2.0459 -1.658637,-3.70431 -3.704532,-3.70431"
       style="fill:#1b1817;fill-opacity:1;fill-rule:evenodd;stroke:none;stroke-width:0.02273975"
       id="path16" />
  </g>
</svg>
