<?xml version="1.0" encoding="UTF-8" standalone="no"?>
<svg
   xmlns:dc="http://purl.org/dc/elements/1.1/"
   xmlns:cc="http://creativecommons.org/ns#"
   xmlns:rdf="http://www.w3.org/1999/02/22-rdf-syntax-ns#"
   xmlns:svg="http://www.w3.org/2000/svg"
   xmlns="http://www.w3.org/2000/svg"
   viewBox="0 0 32 32"
   height="32"
   width="32"
   xml:space="preserve"
   id="svg2"
   version="1.1"><metadata
     id="metadata8"><rdf:RDF><cc:Work
         rdf:about=""><dc:format>image/svg+xml</dc:format><dc:type
           rdf:resource="http://purl.org/dc/dcmitype/StillImage" /><dc:title></dc:title></cc:Work></rdf:RDF></metadata><defs
     id="defs6"><clipPath
       id="clipPath20"
       clipPathUnits="userSpaceOnUse"><path
         id="path18"
         d="M 0,256 H 256 V 0 H 0 Z" /></clipPath></defs><g
     transform="matrix(1.3333333,0,0,-1.3333333,0,31.999986)"
     id="g10"><path
       id="path12"
       style="fill:#59bb0c;fill-opacity:1;fill-rule:nonzero;stroke:none;stroke-width:0.09375"
       d="M 0,0 H 24.000001 V 24.000001 H 0 Z" /><g
       transform="scale(0.09375)"
       id="g14"><g
         clip-path="url(#clipPath20)"
         id="g16"><g
           transform="translate(97.3223,62.7637)"
           id="g22"><path
             id="path24"
             style="fill:#ffffff;fill-opacity:1;fill-rule:nonzero;stroke:none"
             d="m 0,0 c -53.642,0 -97.186,43.534 -97.186,97.185 0,48.62 35.708,89.051 82.286,96.051 h 29.805 c 46.591,-7 82.28,-47.431 82.28,-96.051 C 97.185,43.534 53.663,0 0,0 m 113.676,12.239 c 18.879,25.67 27.763,55.923 27.763,85.582 0,35.642 -13.68,69.731 -37.373,95.416 -11.263,-0.001 -201.388,-0.001 -201.388,-0.001 0,0 0,-166.166 -0.002,-200.341 24.807,-23.197 58.647,-37.894 98.167,-37.894 29.344,0 57.512,9.457 81.076,26.112 l 45.554,-43.877 31.504,31.832 z" /></g></g></g></g></svg>