<?xml version="1.0" encoding="UTF-8" standalone="no"?>
<svg
   xmlns:dc="http://purl.org/dc/elements/1.1/"
   xmlns:cc="http://creativecommons.org/ns#"
   xmlns:rdf="http://www.w3.org/1999/02/22-rdf-syntax-ns#"
   xmlns:svg="http://www.w3.org/2000/svg"
   xmlns="http://www.w3.org/2000/svg"
   id="Logo_FIXED"
   data-name="Logo — FIXED"
   viewBox="0 0 32 32"
   version="1.1"
   width="32"
   height="32">
  <metadata
     id="metadata15">
    <rdf:RDF>
      <cc:Work
         rdf:about="">
        <dc:format>image/svg+xml</dc:format>
        <dc:type
           rdf:resource="http://purl.org/dc/dcmitype/StillImage" />
        <dc:title>Twitter_Logo_Blue</dc:title>
      </cc:Work>
    </rdf:RDF>
  </metadata>
  <defs
     id="defs4">
    <style
       id="style2">.cls-1{fill:none;}.cls-2{fill:#1da1f2;}</style>
  </defs>
  <title
     id="title6">Twitter_Logo_Blue</title>
  <path
     style="fill:#1da1f2;stroke-width:0.12800001"
     class="cls-2"
     d="m 10.06336,29.000828 c 12.07552,0 18.68032,-10.00448 18.68032,-18.68032 0,-0.28416 0,-0.56704 -0.0192,-0.84864 A 13.35808,13.35808 0 0 0 32,6.073468 a 13.10464,13.10464 0 0 1 -3.77088,1.03296 6.58816,6.58816 0 0 0 2.8864,-3.63136 13.15712,13.15712 0 0 1 -4.16896,1.5936 6.57152,6.57152 0 0 0 -11.18848,5.98784 A 18.63936,18.63936 0 0 1 2.2272,4.196988 6.57024,6.57024 0 0 0 4.25984,12.961148 6.51648,6.51648 0 0 1 1.28,12.139388 c 0,0.02686 0,0.05509 0,0.0832 a 6.56768,6.56768 0 0 0 5.2672,6.43584 6.55488,6.55488 0 0 1 -2.96448,0.112686 6.5728,6.5728 0 0 0 6.13376,4.55936 13.17376,13.17376 0 0 1 -8.1536,2.816 A 13.36448,13.36448 0 0 1 0,26.051708 a 18.58688,18.58688 0 0 0 10.06336,2.944"
     id="path10" />
</svg>
