<?xml version="1.0" encoding="UTF-8" standalone="no"?>
<svg
   xmlns:dc="http://purl.org/dc/elements/1.1/"
   xmlns:cc="http://creativecommons.org/ns#"
   xmlns:rdf="http://www.w3.org/1999/02/22-rdf-syntax-ns#"
   xmlns:svg="http://www.w3.org/2000/svg"
   xmlns="http://www.w3.org/2000/svg"
   xmlns:xlink="http://www.w3.org/1999/xlink"
   height="32"
   width="32"
   viewBox="-19.5036 -32.49725 4.5074987 7.79934"
   version="1.1"
   id="svg113">
  <metadata
     id="metadata117">
    <rdf:RDF>
      <cc:Work
         rdf:about="">
        <dc:format>image/svg+xml</dc:format>
        <dc:type
           rdf:resource="http://purl.org/dc/dcmitype/StillImage" />
        <dc:title></dc:title>
      </cc:Work>
    </rdf:RDF>
  </metadata>
  <defs
     id="defs105">
    <radialGradient
       fy="578.08801"
       fx="158.429"
       gradientTransform="matrix(0,-0.1189188,0.11060383,0,-83.01656,-5.25701)"
       gradientUnits="userSpaceOnUse"
       xlink:href="#a"
       r="65"
       cy="578.08801"
       cx="158.429"
       id="c" />
    <radialGradient
       fy="473.45499"
       fx="147.694"
       gradientTransform="matrix(0.01043355,0.0521232,-0.2148494,0.0430308,77.724599,-60.00683)"
       gradientUnits="userSpaceOnUse"
       xlink:href="#b"
       r="65"
       cy="473.45499"
       cx="147.694"
       id="d" />
    <linearGradient
       id="b">
      <stop
         stop-color="#3771c8"
         offset="0"
         id="stop89" />
      <stop
         offset=".128"
         stop-color="#3771c8"
         id="stop91" />
      <stop
         stop-opacity="0"
         stop-color="#60f"
         offset="1"
         id="stop93" />
    </linearGradient>
    <linearGradient
       id="a">
      <stop
         stop-color="#fd5"
         offset="0"
         id="stop96" />
      <stop
         stop-color="#fd5"
         offset=".1"
         id="stop98" />
      <stop
         stop-color="#ff543e"
         offset=".5"
         id="stop100" />
      <stop
         stop-color="#c837ab"
         offset="1"
         id="stop102" />
    </linearGradient>
  </defs>
  <path
     d="m -17.248578,-32.49725 c -1.628076,0 -2.104226,0.0017 -2.196781,0.0094 -0.334109,0.02778 -0.542012,0.0804 -0.76851,0.1932 -0.174553,0.0867 -0.312215,0.1872 -0.448078,0.32808 -0.247432,0.25692 -0.397392,0.573 -0.451677,0.94872 -0.02639,0.1824 -0.03407,0.2196 -0.03563,1.15128 -6e-4,0.31056 0,0.71928 0,1.2675 0,1.6272 0.0018,2.103 0.0096,2.1954 0.02699,0.3252 0.07798,0.5298 0.18595,0.7536 0.206343,0.4284 0.600436,0.75 1.064709,0.87 0.160756,0.0414 0.338308,0.0642 0.566246,0.075 0.09657,0.0042 1.080905,0.0072 2.065836,0.0072 0.984932,0 1.969863,-0.0012 2.064037,-0.006 0.263928,-0.01242 0.417187,-0.033 0.58664,-0.0768 a 1.6327547,1.6332 0 0 0 1.06471,-0.8718 c 0.105871,-0.2184 0.159556,-0.4308 0.18385,-0.73902 0.0053,-0.0672 0.0075,-1.13862 0.0075,-2.2086 0,-1.07016 -0.0024,-2.1396 -0.0077,-2.2068 -0.02459,-0.3132 -0.07828,-0.5238 -0.187569,-0.7464 -0.08968,-0.18222 -0.189248,-0.3183 -0.333809,-0.45744 -0.25793,-0.24648 -0.573443,-0.39648 -0.949481,-0.45072 -0.18217,-0.02634 -0.21846,-0.03414 -1.150606,-0.03576 z"
     fill="url(#c)"
     id="path107"
     style="fill:url(#c);stroke-width:0.0599918" />
  <path
     d="m -17.248578,-32.49725 c -1.628076,0 -2.104226,0.0017 -2.196781,0.0094 -0.334109,0.02778 -0.542012,0.0804 -0.76851,0.1932 -0.174553,0.0867 -0.312215,0.1872 -0.448078,0.32808 -0.247432,0.25692 -0.397392,0.573 -0.451677,0.94872 -0.02639,0.1824 -0.03407,0.2196 -0.03563,1.15128 -6e-4,0.31056 0,0.71928 0,1.2675 0,1.6272 0.0018,2.103 0.0096,2.1954 0.02699,0.3252 0.07798,0.5298 0.18595,0.7536 0.206343,0.4284 0.600436,0.75 1.064709,0.87 0.160756,0.0414 0.338308,0.0642 0.566246,0.075 0.09657,0.0042 1.080905,0.0072 2.065836,0.0072 0.984932,0 1.969863,-0.0012 2.064037,-0.006 0.263928,-0.01242 0.417187,-0.033 0.58664,-0.0768 a 1.6327547,1.6332 0 0 0 1.06471,-0.8718 c 0.105871,-0.2184 0.159556,-0.4308 0.18385,-0.73902 0.0053,-0.0672 0.0075,-1.13862 0.0075,-2.2086 0,-1.07016 -0.0024,-2.1396 -0.0077,-2.2068 -0.02459,-0.3132 -0.07828,-0.5238 -0.187569,-0.7464 -0.08968,-0.18222 -0.189248,-0.3183 -0.333809,-0.45744 -0.25793,-0.24648 -0.573443,-0.39648 -0.949481,-0.45072 -0.18217,-0.02634 -0.21846,-0.03414 -1.150606,-0.03576 z"
     fill="url(#d)"
     id="path109"
     style="fill:url(#d);stroke-width:0.0599918" />
  <path
     d="m -17.250377,-31.47725 c -0.781947,0 -0.88008,0.0034 -1.187197,0.0174 -0.306516,0.01404 -0.515739,0.06258 -0.698809,0.1338 -0.189368,0.07356 -0.350005,0.17196 -0.510041,0.3321 -0.160156,0.16008 -0.258529,0.32076 -0.332309,0.51012 -0.07138,0.18318 -0.119968,0.39252 -0.133764,0.699 -0.01368,0.3072 -0.01727,0.40542 -0.01727,1.18758 0,0.78216 0.0035,0.88002 0.0174,1.18722 0.0141,0.3066 0.06262,0.51588 0.133764,0.699 0.0736,0.18942 0.171973,0.3501 0.332069,0.51018 0.159976,0.1602 0.320613,0.25884 0.509861,0.3324 0.18319,0.07122 0.392473,0.11976 0.698929,0.1338 0.307117,0.01398 0.40519,0.0174 1.187077,0.0174 0.782006,0 0.87984,-0.0034 1.186956,-0.0174 0.306516,-0.01404 0.515979,-0.06258 0.699169,-0.1338 0.189309,-0.07356 0.349705,-0.1722 0.509681,-0.3324 0.160157,-0.16008 0.25853,-0.32076 0.33231,-0.51012 0.07078,-0.18318 0.119367,-0.39252 0.133763,-0.699 0.0138,-0.3072 0.01739,-0.40512 0.01739,-1.18728 0,-0.78216 -0.0036,-0.88032 -0.01739,-1.18752 -0.0144,-0.3066 -0.06298,-0.51588 -0.133763,-0.699 -0.07378,-0.18942 -0.172153,-0.3501 -0.33231,-0.51018 -0.160156,-0.1602 -0.320312,-0.2586 -0.509861,-0.3321 -0.18355,-0.07122 -0.392893,-0.11976 -0.699409,-0.1338 -0.307116,-0.01398 -0.40489,-0.0174 -1.187076,-0.0174 z m -0.25829,0.519 c 0.07666,-1.2e-4 0.162196,0 0.25829,0 0.76875,0 0.859865,0.0028 1.163442,0.01656 0.280724,0.01284 0.433082,0.05976 0.534574,0.09918 0.134364,0.0522 0.230158,0.1146 0.33087,0.2154 0.100773,0.1008 0.163156,0.1968 0.215461,0.3312 0.03941,0.1014 0.08638,0.2538 0.09915,0.5346 0.0138,0.3036 0.0168,0.3948 0.0168,1.1634 0,0.7686 -0.003,0.8598 -0.0168,1.1634 -0.01284,0.2808 -0.05974,0.4332 -0.09915,0.5346 -0.05218,0.1344 -0.114688,0.2301 -0.215461,0.33084 -0.100772,0.1008 -0.196446,0.1632 -0.33087,0.2154 -0.101372,0.0396 -0.25385,0.0864 -0.534574,0.09924 -0.303517,0.0138 -0.394692,0.0168 -1.163442,0.0168 -0.768811,0 -0.859926,-0.003 -1.163443,-0.0168 -0.280724,-0.01296 -0.433082,-0.05988 -0.534634,-0.0993 -0.134364,-0.0522 -0.230337,-0.1146 -0.33111,-0.2154 -0.100773,-0.1008 -0.163156,-0.19656 -0.215461,-0.33102 -0.03941,-0.1014 -0.08638,-0.2538 -0.09915,-0.5346 -0.0138,-0.3036 -0.01656,-0.3948 -0.01656,-1.16388 0,-0.76908 0.0028,-0.8598 0.01656,-1.1634 0.01284,-0.2808 0.05974,-0.4332 0.09915,-0.53472 0.05219,-0.1344 0.114688,-0.2304 0.215461,-0.3312 0.100773,-0.1008 0.196746,-0.1632 0.33111,-0.21552 0.101492,-0.0396 0.25391,-0.0864 0.534634,-0.0993 0.265607,-0.012 0.368539,-0.0156 0.905153,-0.0162 z m 1.79519,0.4782 a 0.34550577,0.3456 0 1 0 0.345506,0.34548 c 0,-0.1908 -0.154758,-0.3456 -0.345506,-0.3456 z m -1.5369,0.4038 c -0.816558,0 -1.478597,0.66222 -1.478597,1.479 0,0.81678 0.662039,1.4787 1.478597,1.4787 0.816557,0 1.478416,-0.66192 1.478416,-1.4787 0,-0.81678 -0.661919,-1.479 -1.478476,-1.479 z m 0,0.519 c 0.530015,0 0.959738,0.42978 0.959738,0.96 0,0.53016 -0.429723,0.96 -0.959738,0.96 -0.530076,0 -0.959739,-0.42984 -0.959739,-0.96 0,-0.53022 0.429663,-0.96 0.959739,-0.96 z"
     fill="#ffffff"
     id="path111"
     style="stroke-width:0.0599918" />
</svg>
