<?xml version="1.0" encoding="UTF-8" standalone="no"?>
<svg
   xmlns:dc="http://purl.org/dc/elements/1.1/"
   xmlns:cc="http://creativecommons.org/ns#"
   xmlns:rdf="http://www.w3.org/1999/02/22-rdf-syntax-ns#"
   xmlns:svg="http://www.w3.org/2000/svg"
   xmlns="http://www.w3.org/2000/svg"
   viewBox="0 0 32.000001 32"
   height="32"
   width="32"
   xml:space="preserve"
   id="svg2"
   version="1.1"><metadata
     id="metadata8"><rdf:RDF><cc:Work
         rdf:about=""><dc:format>image/svg+xml</dc:format><dc:type
           rdf:resource="http://purl.org/dc/dcmitype/StillImage" /><dc:title></dc:title></cc:Work></rdf:RDF></metadata><defs
     id="defs6"><clipPath
       id="clipPath24"
       clipPathUnits="userSpaceOnUse"><path
         id="path22"
         d="M 0,612.288 H 858.898 V 0 H 0 Z" /></clipPath></defs><g
     transform="matrix(1.3333333,0,0,-1.3333333,-492.59759,360.19493)"
     id="g10"><g
       transform="matrix(0.20000001,0,0,0.20000001,295.55856,196.91696)"
       id="g18"><g
         clip-path="url(#clipPath24)"
         id="g20"><g
           transform="translate(463.4482,246.1462)"
           id="g26"><path
             id="path28"
             style="fill:#00b900;fill-opacity:1;fill-rule:nonzero;stroke:none"
             d="m 0,0 h -68 c -14.359,0 -26,11.641 -26,26 v 68 c 0,14.359 11.641,26 26,26 H 0 c 14.359,0 26,-11.641 26,-26 V 26 C 26,11.641 14.359,0 0,0" /></g><g
           transform="translate(472.9443,311.4231)"
           id="g30"><path
             id="path32"
             style="fill:#ffffff;fill-opacity:1;fill-rule:nonzero;stroke:none"
             d="m 0,0 c 0,19.55 -19.599,35.456 -43.691,35.456 -24.089,0 -43.69,-15.906 -43.69,-35.456 0,-17.527 15.543,-32.206 36.539,-34.981 1.423,-0.307 3.36,-0.937 3.849,-2.154 0.441,-1.105 0.288,-2.835 0.141,-3.95 0,0 -0.512,-3.083 -0.623,-3.741 -0.191,-1.104 -0.878,-4.32 3.784,-2.355 4.664,1.965 25.162,14.815 34.329,25.366 H -9.364 C -3.033,-14.871 0,-7.825 0,0" /></g><g
           transform="translate(420.3765,320.8703)"
           id="g34"><path
             id="path36"
             style="fill:#00b900;fill-opacity:1;fill-rule:nonzero;stroke:none"
             d="m 0,0 h -3.065 c -0.469,0 -0.851,-0.381 -0.851,-0.85 v -19.037 c 0,-0.469 0.382,-0.849 0.851,-0.849 H 0 c 0.47,0 0.851,0.38 0.851,0.849 V -0.85 C 0.851,-0.381 0.47,0 0,0" /></g><g
           transform="translate(441.4707,320.8703)"
           id="g38"><path
             id="path40"
             style="fill:#00b900;fill-opacity:1;fill-rule:nonzero;stroke:none"
             d="m 0,0 h -3.064 c -0.471,0 -0.851,-0.381 -0.851,-0.85 v -11.31 l -8.725,11.782 c -0.02,0.03 -0.043,0.059 -0.066,0.086 -0.002,0.002 -0.004,0.004 -0.005,0.006 -0.017,0.018 -0.035,0.036 -0.052,0.052 -0.005,0.005 -0.01,0.01 -0.015,0.015 -0.015,0.012 -0.03,0.026 -0.046,0.037 -0.007,0.007 -0.014,0.012 -0.022,0.018 -0.014,0.01 -0.029,0.02 -0.044,0.03 -0.008,0.006 -0.017,0.01 -0.026,0.015 -0.015,0.009 -0.03,0.018 -0.045,0.026 -0.009,0.004 -0.018,0.009 -0.027,0.013 -0.016,0.007 -0.032,0.015 -0.049,0.02 -0.01,0.004 -0.018,0.007 -0.028,0.01 -0.016,0.007 -0.033,0.012 -0.05,0.017 -0.01,0.003 -0.019,0.005 -0.03,0.008 -0.016,0.004 -0.032,0.007 -0.049,0.01 -0.012,0.002 -0.024,0.004 -0.035,0.005 -0.015,0.003 -0.03,0.004 -0.045,0.006 -0.015,0.001 -0.029,0.002 -0.044,0.003 -0.011,0 -0.02,0.001 -0.03,0.001 h -3.065 c -0.469,0 -0.851,-0.381 -0.851,-0.85 v -19.037 c 0,-0.469 0.382,-0.849 0.851,-0.849 h 3.065 c 0.47,0 0.851,0.38 0.851,0.849 v 11.306 l 8.735,-11.796 c 0.061,-0.085 0.135,-0.155 0.216,-0.21 0.003,-0.002 0.006,-0.004 0.009,-0.007 0.017,-0.011 0.035,-0.022 0.053,-0.031 0.007,-0.005 0.015,-0.009 0.024,-0.014 0.013,-0.007 0.026,-0.014 0.04,-0.02 0.014,-0.006 0.027,-0.011 0.042,-0.017 0.009,-0.003 0.017,-0.007 0.025,-0.01 0.02,-0.007 0.039,-0.013 0.058,-0.019 0.004,0 0.009,-0.002 0.013,-0.002 0.068,-0.019 0.141,-0.029 0.218,-0.029 H 0 c 0.47,0 0.851,0.38 0.851,0.849 V -0.85 C 0.851,-0.381 0.47,0 0,0" /></g><g
           transform="translate(412.9893,304.9011)"
           id="g42"><path
             id="path44"
             style="fill:#00b900;fill-opacity:1;fill-rule:nonzero;stroke:none"
             d="m 0,0 h -8.327 v 15.119 c 0,0.47 -0.381,0.85 -0.851,0.85 h -3.065 c -0.469,0 -0.851,-0.38 -0.851,-0.85 V -3.916 -3.918 c 0,-0.228 0.092,-0.435 0.239,-0.587 0.003,-0.004 0.006,-0.009 0.011,-0.014 0.004,-0.003 0.009,-0.006 0.012,-0.011 0.154,-0.147 0.36,-0.238 0.588,-0.238 H -12.243 0 c 0.47,0 0.85,0.382 0.85,0.852 v 3.064 C 0.85,-0.382 0.47,0 0,0" /></g><g
           transform="translate(458.3945,316.1032)"
           id="g46"><path
             id="path48"
             style="fill:#00b900;fill-opacity:1;fill-rule:nonzero;stroke:none"
             d="M 0,0 C 0.47,0 0.85,0.381 0.85,0.851 V 3.916 C 0.85,4.386 0.47,4.767 0,4.767 h -12.242 -0.002 c -0.23,0 -0.437,-0.092 -0.59,-0.24 -0.003,-0.004 -0.007,-0.006 -0.01,-0.009 -0.005,-0.005 -0.01,-0.01 -0.013,-0.015 -0.146,-0.152 -0.237,-0.358 -0.237,-0.586 V 3.916 -15.118 -15.12 c 0,-0.228 0.091,-0.435 0.239,-0.587 0.002,-0.005 0.007,-0.01 0.011,-0.014 0.003,-0.003 0.008,-0.008 0.013,-0.01 0.152,-0.147 0.358,-0.239 0.587,-0.239 H -12.242 0 c 0.47,0 0.85,0.382 0.85,0.852 v 3.064 c 0,0.47 -0.38,0.852 -0.85,0.852 h -8.326 v 3.218 H 0 c 0.47,0 0.85,0.38 0.85,0.851 v 3.064 c 0,0.47 -0.38,0.852 -0.85,0.852 H -8.326 V 0 Z" /></g></g></g></g></svg>