<?xml version="1.0" encoding="UTF-8" standalone="no"?>
<svg
   xmlns:dc="http://purl.org/dc/elements/1.1/"
   xmlns:cc="http://creativecommons.org/ns#"
   xmlns:rdf="http://www.w3.org/1999/02/22-rdf-syntax-ns#"
   xmlns:svg="http://www.w3.org/2000/svg"
   xmlns="http://www.w3.org/2000/svg"
   height="32"
   width="32"
   xml:space="preserve"
   viewBox="0 0 32 32"
   y="0px"
   x="0px"
   id="Layer_1"
   version="1.1"><metadata
   id="metadata17"><rdf:RDF><cc:Work
       rdf:about=""><dc:format>image/svg+xml</dc:format><dc:type
         rdf:resource="http://purl.org/dc/dcmitype/StillImage" /><dc:title></dc:title></cc:Work></rdf:RDF></metadata><defs
   id="defs15" />
<style
   id="style2"
   type="text/css">
	.st0{fill-rule:evenodd;clip-rule:evenodd;fill:url(#Bubble_Solid_1_);}
	.st1{fill-rule:evenodd;clip-rule:evenodd;fill:#FFFFFF;}
</style>

<g
   transform="matrix(0.03125,0,0,0.03125,0,9e-5)"
   id="Messenger_4_">
	<linearGradient
   y2="1005.4999"
   x2="512"
   y1="11.5"
   x1="512"
   gradientUnits="userSpaceOnUse"
   id="Bubble_Solid_1_">
		<stop
   id="stop4"
   style="stop-color:#00B2FF"
   offset="0" />
		<stop
   id="stop6"
   style="stop-color:#006AFF"
   offset="1" />
	</linearGradient>
	<path
   d="m 512,11.5 c -280,0 -497,205.1 -497,482.1 0,144.9 59.4,270.1 156.1,356.6 8.1,7.3 13,17.4 13.4,28.3 l 2.7,88.4 c 0.9,28.2 30,46.5 55.8,35.2 l 98.6,-43.5 c 8.4,-3.7 17.7,-4.4 26.5,-2 45.3,12.5 93.6,19.1 143.9,19.1 280,0 497,-205.1 497,-482.1 0,-277 -217,-482.1 -497,-482.1 z"
   class="st0"
   id="Bubble_Solid_3_"
   style="clip-rule:evenodd;fill:url(#Bubble_Solid_1_);fill-rule:evenodd" />
	<path
   d="M 213.6,634.6 359.6,403 c 23.2,-36.8 73,-46 107.8,-19.9 l 116.1,87.1 c 10.7,8 25.3,7.9 35.9,-0.1 l 156.8,-119 c 20.9,-15.9 48.3,9.2 34.2,31.4 L 664.5,614 c -23.2,36.8 -73,46 -107.8,19.9 L 440.6,546.8 c -10.7,-8 -25.3,-7.9 -35.9,0.1 L 247.8,666 c -20.9,15.9 -48.3,-9.2 -34.2,-31.4 z"
   class="st1"
   id="Bolt_4_"
   style="clip-rule:evenodd;fill:#ffffff;fill-rule:evenodd" />
</g></svg>