<?xml version="1.0" encoding="UTF-8" standalone="no"?>
<svg
   xmlns:dc="http://purl.org/dc/elements/1.1/"
   xmlns:cc="http://creativecommons.org/ns#"
   xmlns:rdf="http://www.w3.org/1999/02/22-rdf-syntax-ns#"
   xmlns:svg="http://www.w3.org/2000/svg"
   xmlns="http://www.w3.org/2000/svg"
   height="32"
   width="32"
   id="svg15"
   version="1.1"
   viewBox="0 0 32 32">
  <metadata
     id="metadata19">
    <rdf:RDF>
      <cc:Work
         rdf:about="">
        <dc:format>image/svg+xml</dc:format>
        <dc:type
           rdf:resource="http://purl.org/dc/dcmitype/StillImage" />
        <dc:title></dc:title>
      </cc:Work>
    </rdf:RDF>
  </metadata>
  <defs
     id="defs7">
    <linearGradient
       gradientUnits="userSpaceOnUse"
       y2="-28.23"
       x2="53.629002"
       y1="22.898001"
       x1="54.189999"
       id="0">
      <stop
         id="stop2"
         stop-color="#0a80fd" />
      <stop
         id="stop4"
         stop-color="#56c5fa"
         offset="1" />
    </linearGradient>
  </defs>
  <g
     style="enable-background:new"
     id="g13"
     transform="matrix(0.66666,0,0,0.66666,-22.291284,17.143322)">
    <path
       style="fill:url(#0)"
       id="path9"
       d="m 79.74,3.382 c 0.341,-1.561 0.523,-3.181 0.523,-4.844 0,-12.467 -10.11,-22.573 -22.574,-22.573 -1.316,0 -2.606,0.114 -3.86,0.33 -2.02,-1.271 -4.404,-2.01 -6.965,-2.01 -7.23,0 -13.09,5.861 -13.09,13.09 0,2.417 0.658,4.679 1.799,6.622 -0.299,1.466 -0.457,2.985 -0.457,4.54 0,12.467 10.11,22.574 22.573,22.574 1.412,0 2.793,-0.131 4.133,-0.379 1.843,0.991 3.95,1.553 6.189,1.553 7.23,0 13.09,-5.861 13.09,-13.09 0,-2.089 -0.492,-4.062 -1.362,-5.814" />
    <path
       style="fill:#ffffff;fill-opacity:0.85;stroke:#e2f3fe;stroke-width:1.13499999"
       id="path11"
       d="M 62.39,3.972 C 61.889,8.71 54.849,7.309 52.113,5.44 50.979,4.506 50.011,4.806 49.143,5.674 c -0.601,0.901 -0.634,2.369 0.467,3.27 4.605,3.804 16.884,3.604 17.12,-4.872 0.234,-8.876 -14.281,-5.739 -13.38,-11.211 0.701,-3.47 6.306,-2.736 8.776,-1.168 2,1.468 4.405,-1.435 2.136,-3.27 -4.605,-3.537 -14.381,-2.369 -15.15,4.104 -1.034,9.476 12.846,6.507 13.28,11.445 z" />
  </g>
</svg>
