<?xml version="1.0" encoding="UTF-8" standalone="no"?>
<svg
   xmlns:dc="http://purl.org/dc/elements/1.1/"
   xmlns:cc="http://creativecommons.org/ns#"
   xmlns:rdf="http://www.w3.org/1999/02/22-rdf-syntax-ns#"
   xmlns:svg="http://www.w3.org/2000/svg"
   xmlns="http://www.w3.org/2000/svg"
   height="32"
   width="32"
   id="svg22"
   version="1.1"
   viewBox="0 0 32 32">
  <metadata
     id="metadata26">
    <rdf:RDF>
      <cc:Work
         rdf:about="">
        <dc:format>image/svg+xml</dc:format>
        <dc:type
           rdf:resource="http://purl.org/dc/dcmitype/StillImage" />
        <dc:title></dc:title>
      </cc:Work>
    </rdf:RDF>
  </metadata>
  <defs
     id="defs12">
    <linearGradient
       gradientTransform="scale(0.13333333)"
       gradientUnits="userSpaceOnUse"
       y2="180"
       y1="40.079998"
       x2="100.08"
       x1="160.08"
       id="a">
      <stop
         id="stop2"
         stop-color="#37aee2"
         offset="0" />
      <stop
         id="stop4"
         stop-color="#1e96c8"
         offset="1" />
    </linearGradient>
    <linearGradient
       gradientUnits="userSpaceOnUse"
       gradientTransform="scale(0.14558757,0.12211054)"
       y2="174.66003"
       y1="131.03925"
       x2="146.50331"
       x1="123.67709"
       id="b">
      <stop
         id="stop7"
         stop-color="#eff7fc"
         offset="0" />
      <stop
         id="stop9"
         stop-color="#fff"
         offset="1" />
    </linearGradient>
  </defs>
  <circle
     style="fill:url(#a);stroke-width:0.13333334"
     id="circle14"
     r="16"
     cy="16"
     cx="16" />
  <path
     style="fill:#c8daea;stroke-width:0.13333334"
     id="path16"
     d="m 13.066667,23.33333 c -0.5184,0 -0.430267,-0.19573 -0.609067,-0.68933 l -1.524267,-5.0164 11.733334,-6.96093" />
  <path
     style="fill:#a9c9dd;stroke-width:0.13333334"
     id="path18"
     d="m 13.066667,23.33333 c 0.4,0 0.576666,-0.18293 0.8,-0.4 L 16,20.85893 13.338933,19.25427" />
  <path
     style="fill:url(#b);stroke-width:0.13333334"
     id="path20"
     d="m 13.338667,19.25467 6.448,4.76386 c 0.735866,0.406 1.2668,0.19574 1.450133,-0.68306 l 2.624667,-12.3684 C 24.130133,9.88973 23.4508,9.40093 22.7468,9.72053 l -15.412,5.9428 c -1.052,0.422 -1.0457333,1.00894 -0.1917333,1.2704 l 3.9550663,1.23454 9.1564,-5.77667 C 20.6868,12.12947 21.0836,12.27027 20.758,12.55933" />
</svg>
